<?xml version="1.0" encoding="iso-8859-1"?>
<!-- Uploaded to: SVG Repo, www.svgrepo.com, Generator: SVG Repo Mixer Tools -->
<svg height="800px" width="800px" version="1.1" id="Layer_1" xmlns="http://www.w3.org/2000/svg" xmlns:xlink="http://www.w3.org/1999/xlink" 
	 viewBox="0 0 512 512" xml:space="preserve">
<circle style="fill:#EA8953;" cx="256" cy="256" r="256"/>
<path style="opacity:0.1;enable-background:new    ;" d="M507.221,305.227L377.925,175.931l-0.107,0.053
	c-10.453-10.24-28.96-14.4-53.227-11.893l-39.2-39.2l-0.533-0.587l-4.533-4.533l-0.267-0.267
	c-7.413-6.56-15.52-10.187-24.053-10.187c-21.28,0-39.84,22.293-51.573,57.387c-36.213-7.413-64.8-2.453-75.467,15.947
	c-10.613,18.453-0.587,45.707,23.947,73.333c-24.533,27.68-34.56,54.933-23.947,73.333c1.333,2.24,2.88,4.32,4.693,6.133l0.48,0.48
	l171.291,171.253C407.221,487.264,487.381,407.051,507.221,305.227z"/>
<path style="fill:#FCD462;" d="M256,402.667c-36.208,0-64.576-64.421-64.576-146.667S219.792,109.333,256,109.333
	c36.203,0,64.571,64.421,64.571,146.667S292.208,402.667,256,402.667z M256,119.627c-29.424,0-54.283,62.453-54.283,136.373
	S226.576,392.373,256,392.373c29.419,0,54.277-62.453,54.277-136.373S285.424,119.627,256,119.627z"/>
<path style="fill:#EBF0F3;" d="M174.565,348.619c-21.696,0-38.091-6.299-45.589-19.285c-18.101-31.36,23.509-88.133,94.731-129.259
	l0,0c33.312-19.232,67.872-31.883,97.296-35.605c30.912-3.925,52.976,2.533,62.011,18.197
	c18.101,31.36-23.509,88.133-94.731,129.253C246.56,336.011,205.259,348.619,174.565,348.619z M228.859,208.992
	c-64.016,36.96-105.675,89.717-90.965,115.195c14.715,25.488,81.232,15.781,145.243-21.184
	c64.016-36.96,105.675-89.712,90.965-115.189c-6.736-11.664-25.621-16.448-51.803-13.136
	C294.203,178.24,261.019,190.421,228.859,208.992L228.859,208.992z"/>
<path style="fill:#44C4A1;" d="M337.728,348.651c-5.232,0-10.811-0.373-16.72-1.12c-29.424-3.728-63.979-16.373-97.296-35.611
	c-71.221-41.125-112.832-97.899-94.731-129.253c18.107-31.355,88.091-23.701,159.307,17.408
	c71.221,41.12,112.832,97.899,94.731,129.259C375.707,342.005,359.893,348.651,337.728,348.651z M173.888,173.568
	c-17.456,0-30.432,4.603-35.995,14.245c-14.709,25.483,26.949,78.235,90.965,115.189l0,0c32.16,18.571,65.344,30.757,93.44,34.32
	c26.208,3.323,45.072-1.467,51.803-13.136c14.709-25.483-26.944-78.24-90.965-115.195
	C243.339,186.016,202.571,173.568,173.888,173.568z"/>
<circle style="fill:#FFFFFF;" cx="256" cy="256" r="22.048"/>
</svg>