<?xml version="1.0" encoding="iso-8859-1"?>
<!-- Uploaded to: SVG Repo, www.svgrepo.com, Generator: SVG Repo Mixer Tools -->
<svg height="800px" width="800px" version="1.1" id="Layer_1" xmlns="http://www.w3.org/2000/svg" xmlns:xlink="http://www.w3.org/1999/xlink" 
	 viewBox="0 0 512 512" xml:space="preserve">
<circle style="fill:#E05B49;" cx="256" cy="256" r="256"/>
<path style="opacity:0.1;enable-background:new    ;" d="M511.691,268.32L351.104,107.739c-0.107-0.107-0.213-0.213-0.32-0.32
	l-0.032-0.032v0.005c-2.187-2.091-5.131-3.392-8.395-3.392H169.643c-6.72,0-12.165,5.445-12.165,12.165v10.667v258.336v10.667
	c0,3.424,1.429,6.507,3.707,8.72v0.005l107.131,107.131C399.893,505.456,505.451,399.899,511.691,268.32z"/>
<path style="fill:#2F4859;" d="M342.357,114.667H169.643c-6.72,0-12.165,5.445-12.165,12.165v269.003
	c0,6.72,5.445,12.165,12.165,12.165h172.715c6.72,0,12.165-5.445,12.165-12.165V126.832
	C354.523,120.112,349.077,114.667,342.357,114.667z"/>
<path style="fill:#64798A;" d="M342.357,104H169.643c-6.72,0-12.165,5.445-12.165,12.165v269.003c0,6.72,5.445,12.165,12.165,12.165
	h172.715c6.72,0,12.165-5.445,12.165-12.165V116.165C354.523,109.445,349.077,104,342.357,104z"/>
<path style="fill:#EBF0F3;" d="M173.477,192.267v-53.493c0-2.747,2.224-4.971,4.971-4.971h155.109c2.747,0,4.971,2.224,4.971,4.971
	v53.493c0,2.747-2.224,4.971-4.971,4.971H178.448C175.701,197.237,173.477,195.013,173.477,192.267z"/>
<path style="fill:#E1E6E9;" d="M173.477,192.267v-5.696h165.045v5.696c0,2.747-2.224,4.971-4.971,4.971H178.448
	C175.701,197.237,173.477,195.013,173.477,192.267z"/>
<path style="fill:#FCD462;" d="M191.829,245.088h-14.512c-2.123,0-3.84-1.717-3.84-3.84v-14.512c0-2.117,1.717-3.84,3.84-3.84
	h14.512c2.123,0,3.84,1.717,3.84,3.84v14.512C195.669,243.371,193.952,245.088,191.829,245.088z"/>
<path style="fill:#44C4A1;" d="M227.541,245.088h-14.512c-2.123,0-3.84-1.717-3.84-3.84v-14.512c0-2.117,1.717-3.84,3.84-3.84
	h14.512c2.123,0,3.84,1.717,3.84,3.84v14.512C231.381,243.371,229.664,245.088,227.541,245.088z"/>
<path style="fill:#E56353;" d="M263.259,245.088h-14.512c-2.123,0-3.84-1.717-3.84-3.84v-14.512c0-2.117,1.717-3.84,3.84-3.84
	h14.512c2.117,0,3.84,1.717,3.84,3.84v14.512C267.099,243.371,265.376,245.088,263.259,245.088z"/>
<path style="fill:#27A2DB;" d="M298.971,245.088h-14.512c-2.117,0-3.84-1.717-3.84-3.84v-14.512c0-2.117,1.717-3.84,3.84-3.84
	h14.512c2.123,0,3.84,1.717,3.84,3.84v14.512C302.811,243.371,301.093,245.088,298.971,245.088z"/>
<g>
	<path style="fill:#E1E6E9;" d="M334.688,245.088h-14.512c-2.123,0-3.84-1.717-3.84-3.84v-14.512c0-2.117,1.717-3.84,3.84-3.84
		h14.512c2.123,0,3.84,1.717,3.84,3.84v14.512C338.523,243.371,336.805,245.088,334.688,245.088z"/>
	<path style="fill:#E1E6E9;" d="M191.829,278.859h-14.512c-2.123,0-3.84-1.717-3.84-3.84v-14.512c0-2.123,1.717-3.84,3.84-3.84
		h14.512c2.123,0,3.84,1.717,3.84,3.84v14.512C195.669,277.136,193.952,278.859,191.829,278.859z"/>
	<path style="fill:#E1E6E9;" d="M227.541,278.859h-14.512c-2.123,0-3.84-1.717-3.84-3.84v-14.512c0-2.123,1.717-3.84,3.84-3.84
		h14.512c2.123,0,3.84,1.717,3.84,3.84v14.512C231.381,277.136,229.664,278.859,227.541,278.859z"/>
	<path style="fill:#E1E6E9;" d="M263.259,278.859h-14.512c-2.123,0-3.84-1.717-3.84-3.84v-14.512c0-2.123,1.717-3.84,3.84-3.84
		h14.512c2.117,0,3.84,1.717,3.84,3.84v14.512C267.099,277.136,265.376,278.859,263.259,278.859z"/>
	<path style="fill:#E1E6E9;" d="M298.971,278.859h-14.512c-2.117,0-3.84-1.717-3.84-3.84v-14.512c0-2.123,1.717-3.84,3.84-3.84
		h14.512c2.123,0,3.84,1.717,3.84,3.84v14.512C302.811,277.136,301.093,278.859,298.971,278.859z"/>
	<path style="fill:#E1E6E9;" d="M334.688,278.859h-14.512c-2.123,0-3.84-1.717-3.84-3.84v-14.512c0-2.123,1.717-3.84,3.84-3.84
		h14.512c2.123,0,3.84,1.717,3.84,3.84v14.512C338.523,277.136,336.805,278.859,334.688,278.859z"/>
	<path style="fill:#E1E6E9;" d="M191.829,312.629h-14.512c-2.123,0-3.84-1.717-3.84-3.84v-14.512c0-2.123,1.717-3.84,3.84-3.84
		h14.512c2.123,0,3.84,1.717,3.84,3.84v14.512C195.669,310.907,193.952,312.629,191.829,312.629z"/>
	<path style="fill:#E1E6E9;" d="M227.541,312.629h-14.512c-2.123,0-3.84-1.717-3.84-3.84v-14.512c0-2.123,1.717-3.84,3.84-3.84
		h14.512c2.123,0,3.84,1.717,3.84,3.84v14.512C231.381,310.907,229.664,312.629,227.541,312.629z"/>
	<path style="fill:#E1E6E9;" d="M263.259,312.629h-14.512c-2.123,0-3.84-1.717-3.84-3.84v-14.512c0-2.123,1.717-3.84,3.84-3.84
		h14.512c2.117,0,3.84,1.717,3.84,3.84v14.512C267.099,310.907,265.376,312.629,263.259,312.629z"/>
	<path style="fill:#E1E6E9;" d="M298.971,312.629h-14.512c-2.117,0-3.84-1.717-3.84-3.84v-14.512c0-2.123,1.717-3.84,3.84-3.84
		h14.512c2.123,0,3.84,1.717,3.84,3.84v14.512C302.811,310.907,301.093,312.629,298.971,312.629z"/>
	<path style="fill:#E1E6E9;" d="M334.688,312.629h-14.512c-2.123,0-3.84-1.717-3.84-3.84v-14.512c0-2.123,1.717-3.84,3.84-3.84
		h14.512c2.123,0,3.84,1.717,3.84,3.84v14.512C338.523,310.907,336.805,312.629,334.688,312.629z"/>
	<path style="fill:#E1E6E9;" d="M191.829,346.395h-14.512c-2.123,0-3.84-1.717-3.84-3.84v-14.512c0-2.117,1.717-3.84,3.84-3.84
		h14.512c2.123,0,3.84,1.717,3.84,3.84v14.512C195.669,344.677,193.952,346.395,191.829,346.395z"/>
	<path style="fill:#E1E6E9;" d="M227.541,346.395h-14.512c-2.123,0-3.84-1.717-3.84-3.84v-14.512c0-2.117,1.717-3.84,3.84-3.84
		h14.512c2.123,0,3.84,1.717,3.84,3.84v14.512C231.381,344.677,229.664,346.395,227.541,346.395z"/>
	<path style="fill:#E1E6E9;" d="M263.259,346.395h-14.512c-2.123,0-3.84-1.717-3.84-3.84v-14.512c0-2.117,1.717-3.84,3.84-3.84
		h14.512c2.117,0,3.84,1.717,3.84,3.84v14.512C267.099,344.677,265.376,346.395,263.259,346.395z"/>
	<path style="fill:#E1E6E9;" d="M298.971,346.395h-14.512c-2.117,0-3.84-1.717-3.84-3.84v-14.512c0-2.117,1.717-3.84,3.84-3.84
		h14.512c2.123,0,3.84,1.717,3.84,3.84v14.512C302.811,344.677,301.093,346.395,298.971,346.395z"/>
	<path style="fill:#E1E6E9;" d="M191.829,380.165h-14.512c-2.123,0-3.84-1.717-3.84-3.84v-14.512c0-2.123,1.717-3.84,3.84-3.84
		h14.512c2.123,0,3.84,1.717,3.84,3.84v14.512C195.669,378.448,193.952,380.165,191.829,380.165z"/>
	<path style="fill:#E1E6E9;" d="M227.541,380.165h-14.512c-2.123,0-3.84-1.717-3.84-3.84v-14.512c0-2.123,1.717-3.84,3.84-3.84
		h14.512c2.123,0,3.84,1.717,3.84,3.84v14.512C231.381,378.448,229.664,380.165,227.541,380.165z"/>
	<path style="fill:#E1E6E9;" d="M263.259,380.165h-14.512c-2.123,0-3.84-1.717-3.84-3.84v-14.512c0-2.123,1.717-3.84,3.84-3.84
		h14.512c2.117,0,3.84,1.717,3.84,3.84v14.512C267.099,378.448,265.376,380.165,263.259,380.165z"/>
	<path style="fill:#E1E6E9;" d="M298.971,380.165h-14.512c-2.117,0-3.84-1.717-3.84-3.84v-14.512c0-2.123,1.717-3.84,3.84-3.84
		h14.512c2.123,0,3.84,1.717,3.84,3.84v14.512C302.811,378.448,301.093,380.165,298.971,380.165z"/>
</g>
<path style="fill:#E56353;" d="M334.688,380.165h-14.512c-2.123,0-3.84-1.717-3.84-3.84v-48.283c0-2.117,1.717-3.84,3.84-3.84
	h14.512c2.123,0,3.84,1.717,3.84,3.84v48.283C338.523,378.448,336.805,380.165,334.688,380.165z"/>
</svg>