<?xml version="1.0" encoding="iso-8859-1"?>
<!-- Uploaded to: SVG Repo, www.svgrepo.com, Generator: SVG Repo Mixer Tools -->
<svg version="1.1" id="Layer_1" xmlns="http://www.w3.org/2000/svg" xmlns:xlink="http://www.w3.org/1999/xlink" 
	 viewBox="0 0 512 512" xml:space="preserve">
<circle style="fill:#E05B49;" cx="256" cy="256" r="256"/>
<path style="opacity:0.1;enable-background:new    ;" d="M381.115,160.325l-0.304-0.304l-0.059,0.059
	c-1.061-0.805-2.32-1.371-3.755-1.371H135.003c-3.488,0-6.32,2.832-6.32,6.32v169.963h-17.509c-1.019,0-1.845,0.827-1.845,1.845
	v8.261c0,0.811,0.533,1.531,1.312,1.765l0.651,0.197l164.133,164.133c121.312-9.115,218.987-102.715,234.384-222.171
	L381.701,160.917C381.515,160.704,381.328,160.512,381.115,160.325z"/>
<path style="fill:#EBF0F3;" d="M376.992,158.709H135.003c-3.488,0-6.32,2.832-6.32,6.32v169.963h254.629V165.035
	C383.317,161.541,380.485,158.709,376.992,158.709z"/>
<rect x="143.787" y="173.813" style="fill:#64798A;" width="224.427" height="146.08"/>
<polygon style="fill:#3A556A;" points="143.787,319.893 368.213,173.813 368.213,319.893 "/>
<path style="fill:#D5D6DB;" d="M109.333,336.837v8.261c0,0.811,0.533,1.531,1.312,1.765l21.077,6.347
	c0.171,0.053,0.352,0.08,0.533,0.08h247.488c0.181,0,0.357-0.027,0.533-0.08l21.077-6.347c0.779-0.235,1.312-0.955,1.312-1.765
	v-8.261c0-1.019-0.827-1.845-1.845-1.845H111.179C110.16,334.997,109.333,335.819,109.333,336.837z"/>
<g>
	<polygon style="fill:#64798A;" points="232.235,334.997 234.544,339.221 277.456,339.221 279.76,334.997 	"/>
	<circle style="fill:#64798A;" cx="256" cy="166.773" r="3.835"/>
</g>
<circle style="fill:#3A556A;" cx="256" cy="166.773" r="1.627"/>
</svg>