<?xml version="1.0" encoding="iso-8859-1"?>
<!-- Uploaded to: SVG Repo, www.svgrepo.com, Generator: SVG Repo Mixer Tools -->
<svg version="1.1" id="Layer_1" xmlns="http://www.w3.org/2000/svg" xmlns:xlink="http://www.w3.org/1999/xlink" 
	 viewBox="0 0 512 512" xml:space="preserve">
<circle style="fill:#EA8953;" cx="256" cy="256" r="256"/>
<path style="opacity:0.1;enable-background:new    ;" d="M510.304,285.099L370.539,145.328c-0.251-0.293-0.523-0.565-0.816-0.816
	l0,0c-1.317-1.131-3.008-1.84-4.88-1.84H147.157c-4.16,0-7.536,3.371-7.536,7.536v157.509l-30.293,52.741
	c0,2.523,1.067,4.789,2.757,6.405l145.104,145.104C388.197,511.365,495.899,412.384,510.304,285.099z"/>
<path style="fill:#3A556A;" d="M364.843,142.672H147.157c-4.16,0-7.536,3.371-7.536,7.536v157.509h232.752V150.208
	C372.373,146.048,369.003,142.672,364.843,142.672z"/>
<rect x="152.224" y="155.253" style="fill:#E1E6E9;" width="207.547" height="139.84"/>
<g>
	<polygon style="fill:#EBF0F3;" points="152.224,295.12 152.224,155.275 359.776,295.12 	"/>
	<polygon style="fill:#EBF0F3;" points="402.667,360.464 109.333,360.464 139.627,307.717 372.373,307.717 	"/>
</g>
<g>
	<polygon style="fill:#D5D6DB;" points="219.883,356.416 229.899,339.989 282.101,339.989 292.117,356.416 	"/>
	<path style="fill:#D5D6DB;" d="M109.333,360.464c0,4.896,3.968,8.864,8.864,8.864h275.605c4.896,0,8.864-3.968,8.864-8.864H109.333
		z"/>
</g>
<g>
	<polygon style="fill:#64798A;" points="164.208,317.525 147.941,317.525 149.413,314.741 165.461,314.741 	"/>
	<polygon style="fill:#64798A;" points="186.416,317.525 170.144,317.525 171.317,314.741 187.365,314.741 	"/>
	<polygon style="fill:#64798A;" points="208.619,317.525 192.352,317.525 193.221,314.741 209.269,314.741 	"/>
	<polygon style="fill:#64798A;" points="230.827,317.525 214.555,317.525 215.12,314.741 231.168,314.741 	"/>
	<polygon style="fill:#64798A;" points="253.035,317.525 236.763,317.525 237.024,314.741 253.072,314.741 	"/>
	<polygon style="fill:#64798A;" points="275.237,317.525 258.965,317.525 258.928,314.741 274.976,314.741 	"/>
	<polygon style="fill:#64798A;" points="297.445,317.525 281.173,317.525 280.832,314.741 296.88,314.741 	"/>
	<polygon style="fill:#64798A;" points="319.648,317.525 303.381,317.525 302.731,314.741 318.779,314.741 	"/>
	<polygon style="fill:#64798A;" points="341.856,317.525 325.584,317.525 324.635,314.741 340.683,314.741 	"/>
	<polygon style="fill:#64798A;" points="364.059,317.525 347.792,317.525 346.539,314.741 362.587,314.741 	"/>
	<polygon style="fill:#64798A;" points="166.027,313.477 150.08,313.477 150.795,312.128 166.635,312.128 	"/>
	<polygon style="fill:#64798A;" points="187.792,313.477 171.845,313.477 172.416,312.128 188.256,312.128 	"/>
	<polygon style="fill:#64798A;" points="209.557,313.477 193.611,313.477 194.032,312.128 209.872,312.128 	"/>
	<polygon style="fill:#64798A;" points="231.328,313.477 215.376,313.477 215.653,312.128 231.493,312.128 	"/>
	<polygon style="fill:#64798A;" points="253.088,313.477 237.141,313.477 237.269,312.128 253.109,312.128 	"/>
	<polygon style="fill:#64798A;" points="274.853,313.477 258.912,313.477 258.891,312.128 274.731,312.128 	"/>
	<polygon style="fill:#64798A;" points="296.624,313.477 280.672,313.477 280.507,312.128 296.347,312.128 	"/>
	<polygon style="fill:#64798A;" points="318.389,313.477 302.443,313.477 302.128,312.128 317.968,312.128 	"/>
	<polygon style="fill:#64798A;" points="340.155,313.477 324.208,313.477 323.744,312.128 339.584,312.128 	"/>
	<polygon style="fill:#64798A;" points="361.92,313.477 345.973,313.477 345.365,312.128 361.205,312.128 	"/>
	<polygon style="fill:#64798A;" points="162.261,321.851 145.648,321.851 147.189,318.949 163.568,318.949 	"/>
	<polygon style="fill:#64798A;" points="184.939,321.851 168.325,321.851 169.547,318.949 185.931,318.949 	"/>
	<polygon style="fill:#64798A;" points="207.616,321.851 191.003,321.851 191.909,318.949 208.293,318.949 	"/>
	<polygon style="fill:#64798A;" points="230.293,321.851 213.68,321.851 214.267,318.949 230.651,318.949 	"/>
	<polygon style="fill:#64798A;" points="252.971,321.851 236.357,321.851 236.629,318.949 253.013,318.949 	"/>
	<polygon style="fill:#64798A;" points="275.643,321.851 259.029,321.851 258.987,318.949 275.371,318.949 	"/>
	<polygon style="fill:#64798A;" points="298.32,321.851 281.707,321.851 281.349,318.949 297.733,318.949 	"/>
	<polygon style="fill:#64798A;" points="320.997,321.851 304.384,321.851 303.707,318.949 320.091,318.949 	"/>
	<polygon style="fill:#64798A;" points="343.675,321.851 327.061,321.851 326.069,318.949 342.453,318.949 	"/>
	<polygon style="fill:#64798A;" points="366.352,321.851 349.739,321.851 348.432,318.949 364.811,318.949 	"/>
	<polygon style="fill:#64798A;" points="160.235,326.368 143.259,326.368 144.864,323.333 161.595,323.333 	"/>
	<polygon style="fill:#64798A;" points="183.403,326.368 166.427,326.368 167.701,323.333 184.437,323.333 	"/>
	<polygon style="fill:#64798A;" points="206.571,326.368 189.595,326.368 190.539,323.333 207.269,323.333 	"/>
	<polygon style="fill:#64798A;" points="229.739,326.368 212.763,326.368 213.376,323.333 230.112,323.333 	"/>
	<polygon style="fill:#64798A;" points="252.901,326.368 235.931,326.368 236.213,323.333 252.949,323.333 	"/>
	<polygon style="fill:#64798A;" points="276.069,326.368 259.099,326.368 259.051,323.333 275.787,323.333 	"/>
	<polygon style="fill:#64798A;" points="299.237,326.368 282.261,326.368 281.888,323.333 298.624,323.333 	"/>
	<polygon style="fill:#64798A;" points="322.405,326.368 305.429,326.368 304.725,323.333 321.461,323.333 	"/>
	<polygon style="fill:#64798A;" points="345.573,326.368 328.597,326.368 327.563,323.333 344.299,323.333 	"/>
	<polygon style="fill:#64798A;" points="368.741,326.368 351.765,326.368 350.405,323.333 367.136,323.333 	"/>
	<polygon style="fill:#64798A;" points="158.117,331.083 140.768,331.083 142.443,327.915 159.536,327.915 	"/>
	<polygon style="fill:#64798A;" points="181.797,331.083 164.443,331.083 165.776,327.915 182.875,327.915 	"/>
	<polygon style="fill:#64798A;" points="205.477,331.083 188.123,331.083 189.109,327.915 206.208,327.915 	"/>
	<polygon style="fill:#64798A;" points="229.152,331.083 211.808,331.083 212.448,327.915 229.547,327.915 	"/>
	<polygon style="fill:#64798A;" points="252.837,331.083 235.483,331.083 235.781,327.915 252.88,327.915 	"/>
	<polygon style="fill:#64798A;" points="276.517,331.083 259.163,331.083 259.12,327.915 276.219,327.915 	"/>
	<polygon style="fill:#64798A;" points="323.877,331.083 306.523,331.083 305.792,327.915 322.885,327.915 	"/>
	<polygon style="fill:#64798A;" points="371.232,331.083 353.883,331.083 352.464,327.915 369.557,327.915 	"/>
	<polygon style="fill:#64798A;" points="155.899,336.011 138.16,336.011 139.909,332.699 157.387,332.699 	"/>
	<polygon style="fill:#64798A;" points="252.763,336.011 162.373,336.011 163.765,332.699 252.811,332.699 	"/>
	<polygon style="fill:#64798A;" points="276.976,336.011 259.237,336.011 259.189,332.699 276.667,332.699 	"/>
	<polygon style="fill:#64798A;" points="301.195,336.011 283.451,336.011 283.045,332.699 300.523,332.699 	"/>
	<polygon style="fill:#64798A;" points="325.408,336.011 307.669,336.011 306.901,332.699 324.379,332.699 	"/>
	<polygon style="fill:#64798A;" points="349.627,336.011 331.883,336.011 330.757,332.699 348.235,332.699 	"/>
	<polygon style="fill:#64798A;" points="373.84,336.011 356.101,336.011 354.613,332.699 372.091,332.699 	"/>
</g>
</svg>