<svg id="Calque_1" data-name="Calque 1" xmlns="http://www.w3.org/2000/svg" viewBox="0 0 163.95 57.49"><defs><style>.cls-1{fill:#39a9dc;}.cls-2{fill:#014470;}.cls-3{fill:#0b72b5;}.cls-4{fill:#546d79;}</style></defs><polygon class="cls-1" points="42.66 0 19.16 0 0 18.71 11.75 30.4 23.5 18.71 42.66 0"/><polygon class="cls-2" points="23.5 18.71 11.75 30.4 28.09 23.28 23.5 18.71"/><polygon class="cls-3" points="28.09 23.28 11.75 30.4 30.18 48.75 43.17 38.28 28.09 23.28"/><polygon class="cls-1" points="2.15 57.49 25.65 57.49 43.99 39.14 32.24 27.45 20.49 39.14 2.15 57.49"/><path class="cls-4" d="M49.32,34.64H57c1.28,0,1.78-.51,1.78-1.44,0-2.76-9.48-1.69-9.48-6.89,0-2.66,1.85-4.06,5.13-4.06h6.48v2.62H54c-1.34,0-1.75.38-1.78,1.32,0,2.59,9.48,1.5,9.48,6.88,0,2.85-2,4.19-4.66,4.19h-7.7Z"/><path class="cls-4" d="M66.68,17.24A1.66,1.66,0,1,1,65,18.9,1.61,1.61,0,0,1,66.68,17.24Zm-1.37,20v-15h2.75v15Z"/><path class="cls-4" d="M72.57,37.26V27.06a5.45,5.45,0,0,1,9.76-3,5.45,5.45,0,0,1,9.76,3v10.2H89.34V27.69c0-1.91-1.07-3.13-2.69-3.13-1.79,0-3,1-3,3.57v9.13H81V28.13c0-2.57-1.16-3.57-2.94-3.57s-2.69,1.22-2.69,3.13v9.57Z"/><path class="cls-4" d="M94.87,42.13V30.19c0-4.94,3.16-8.26,7.57-8.26,4.88,0,7.76,3.76,7.76,8.2A7.39,7.39,0,0,1,103,37.58a8.42,8.42,0,0,1-4.25-1.07V33.63A7.42,7.42,0,0,0,102.5,35c3,0,5-2.07,5-5.16a4.91,4.91,0,0,0-5-5.23c-2.62,0-4.82,2-4.82,6.13V42.13Z"/><path class="cls-4" d="M113.11,37.26V15.36h2.75v21.9Z"/><path class="cls-4" d="M122.31,17.24a1.66,1.66,0,1,1-1.66,1.66A1.61,1.61,0,0,1,122.31,17.24Zm-1.38,20v-15h2.76v15Z"/><path class="cls-4" d="M138.17,24.87H136a4.89,4.89,0,1,0,0,9.77h2.13v2.62h-2.63a7.51,7.51,0,1,1,0-15h2.63Z"/><path class="cls-4" d="M143.18,17.24a1.66,1.66,0,1,1-1.66,1.66A1.6,1.6,0,0,1,143.18,17.24Zm-1.38,20v-15h2.75v15Z"/><path class="cls-4" d="M157.51,24.87h-5.38v7.89c0,1.41.65,1.88,2.06,1.88h3.32v2.62h-3.7c-2.81,0-4.44-1.87-4.44-4.85V18.49h2.76v3.76h5.38Z"/><path class="cls-4" d="M162.29,17.24a1.66,1.66,0,1,1-1.66,1.66A1.61,1.61,0,0,1,162.29,17.24Zm-1.37,20v-15h2.75v15Z"/></svg>