<?xml version="1.0" encoding="iso-8859-1"?>
<!-- Uploaded to: SVG Repo, www.svgrepo.com, Generator: SVG Repo Mixer Tools -->
<svg height="800px" width="800px" version="1.1" id="Layer_1" xmlns="http://www.w3.org/2000/svg" xmlns:xlink="http://www.w3.org/1999/xlink" 
	 viewBox="0 0 512 512" xml:space="preserve">
<circle style="fill:#EFC84A;" cx="256" cy="256" r="256"/>
<path style="opacity:0.1;enable-background:new    ;" d="M511.861,261.515L401.824,151.477c-0.011-0.011-0.021-0.021-0.032-0.032
	l-0.037-0.037h-0.027c-0.325-0.315-0.725-0.576-1.221-0.725l-143.68-41.227c-0.533-0.16-1.12-0.16-1.653,0l-143.68,41.227
	c-2.133,0.64-2.72,3.093-1.6,4.64c-0.768,1.056-0.677,2.512,0.107,3.547l-0.053,0.005l0.133,0.133
	c0.091,0.101,0.181,0.192,0.283,0.283l43.957,43.957c-1.92,5.995-3.328,12.224-4.16,18.635c-1.013,8,3.36,15.68,10.773,18.88
	c6.08,2.613,12.107,5.12,18.08,7.52l-7.733,42.4l18.827,18.827H109.36v53.067l149.36,149.36
	C396.997,510.485,508.933,399.44,511.861,261.515z"/>
<g>
	<path style="fill:#64798A;" d="M255.173,201.179l-58.965-16.923v29.173c5.067,2.096,8.635,7.077,8.635,12.901
		c0,3.947-1.653,7.493-4.283,10.037l3.941,21.547c16.629,5.808,32.725,10.416,47.989,13.2c2.091,0.384,4.235,0.373,6.325-0.011
		c29.099-5.365,60.053-15.877,92.395-30.224c7.317-3.248,11.643-10.885,10.635-18.827c-2.149-16.907-8.299-32.544-17.403-46.021
		l-87.611,25.147C256.288,201.333,255.712,201.333,255.173,201.179z"/>
	<path style="fill:#64798A;" d="M176.901,226.325c0-5.824,3.568-10.805,8.635-12.901v-32.235l-17.995-5.168
		c-9.072,13.435-15.211,29.013-17.376,45.851c-1.029,7.995,3.371,15.691,10.773,18.885c6.075,2.624,12.091,5.109,18.069,7.52
		l2.181-11.925C178.555,233.819,176.901,230.272,176.901,226.325z"/>
</g>
<g>
	<path style="fill:#2F4859;" d="M400.491,156.459l-143.664,41.237c-0.544,0.155-1.115,0.155-1.659,0l-55.829-16.021l-3.136,1.221
		v1.365l58.965,16.923c0.544,0.155,1.115,0.155,1.659,0l87.611-25.147l56.053-16.091c2.171-0.624,2.715-3.083,1.637-4.629
		C401.765,155.829,401.221,156.245,400.491,156.459z"/>
	<path style="fill:#2F4859;" d="M185.536,179.237c0-0.507,0.091-0.997,0.224-1.467l-74.256-21.312
		c-0.731-0.208-1.275-0.624-1.637-1.147c-1.083,1.547-0.539,4.005,1.637,4.629l56.032,16.08l17.995,5.168v-1.952H185.536z"/>
</g>
<path style="fill:#3A556A;" d="M111.509,156.459l74.256,21.312c0.453-1.573,1.6-2.891,3.179-3.504l53.317-20.715
	c0.016-4.901,6.16-8.869,13.744-8.869c7.589,0,13.744,3.979,13.744,8.891c0,4.912-6.155,8.891-13.744,8.891
	c-1.915,0-3.733-0.256-5.387-0.709l-51.275,19.92l55.829,16.021c0.544,0.155,1.115,0.155,1.659,0l143.664-41.237
	c0.731-0.208,1.275-0.624,1.637-1.147c1.083-1.547,0.539-4.005-1.637-4.629l-143.664-41.237c-0.544-0.155-1.115-0.155-1.659,0
	l-143.664,41.237c-2.171,0.624-2.715,3.083-1.637,4.629C110.235,155.829,110.779,156.245,111.509,156.459z"/>
<path style="fill:#E56353;" d="M242.256,153.573l0.005-0.016l-53.317,20.715c-1.579,0.608-2.725,1.925-3.179,3.504
	c-0.133,0.469-0.224,0.96-0.224,1.467v1.952v32.235c1.643-0.683,3.445-1.067,5.333-1.067c1.893,0,3.691,0.384,5.333,1.067v-29.173
	v-1.365l3.136-1.221l51.275-19.92C245.701,160.395,242.256,157.243,242.256,153.573z"/>
<path style="fill:#2F4859;" d="M250.613,161.749c1.653,0.459,3.472,0.709,5.387,0.709c7.589,0,13.744-3.979,13.744-8.891
	c0-4.907-6.155-8.891-13.744-8.891c-7.584,0-13.728,3.973-13.744,8.869l-0.005,0.016
	C242.256,157.243,245.701,160.395,250.613,161.749z"/>
<path style="fill:#E56353;" d="M190.869,240.293c-3.765,0-7.173-1.509-9.685-3.931l-2.181,11.925l-7.755,42.416h39.237
	l-5.995-32.789l-3.941-21.547C198.043,238.784,194.64,240.293,190.869,240.293z"/>
<path style="fill:#D15241;" d="M185.536,213.424c-5.067,2.096-8.635,7.077-8.635,12.901c0,3.947,1.653,7.493,4.283,10.037
	c2.512,2.427,5.915,3.931,9.685,3.931c3.765,0,7.173-1.509,9.685-3.931c2.629-2.539,4.283-6.091,4.283-10.037
	c0-5.824-3.568-10.805-8.635-12.901c-1.643-0.683-3.445-1.067-5.333-1.067C188.981,212.357,187.184,212.741,185.536,213.424z"/>
<g>
	<polygon style="fill:#FFFFFF;" points="226.8,345.797 230.197,342.4 227.792,338.24 231.952,335.84 230.709,331.2 235.349,329.957 
		235.349,325.152 240.155,325.152 241.216,321.195 241.216,309.488 109.333,309.488 109.333,347.781 228.784,347.781 	"/>
	<polygon style="fill:#FFFFFF;" points="270.784,321.189 271.845,325.152 276.651,325.152 276.651,329.957 281.291,331.2 
		280.043,335.84 284.208,338.24 281.803,342.4 285.2,345.797 283.221,347.781 402.667,347.781 402.667,309.488 270.784,309.488 	"/>
</g>
<g>
	<polygon style="fill:#EBF0F3;" points="281.803,349.195 284.208,353.355 280.043,355.76 281.291,360.4 276.651,361.643 
		276.651,362.587 402.667,362.587 402.667,347.781 283.221,347.781 	"/>
	<polygon style="fill:#EBF0F3;" points="230.709,360.4 231.952,355.76 227.792,353.355 230.197,349.195 228.784,347.781 
		109.333,347.781 109.333,362.587 235.349,362.587 235.349,361.643 	"/>
</g>
<g>
	<polygon style="fill:#E56353;" points="265.963,369.845 264.597,372.203 263.557,374.005 259.397,371.605 257.157,373.84 
		256,375.003 254.843,373.84 252.603,371.605 248.443,374.005 247.403,372.203 246.037,369.845 241.397,371.088 241.216,370.405 
		241.216,402.667 256,392.085 270.784,402.667 270.784,370.405 270.603,371.088 	"/>
	<polygon style="fill:#E56353;" points="241.397,320.512 246.037,321.755 248.443,317.595 252.603,319.995 256,316.597 
		259.397,319.995 263.557,317.595 265.963,321.755 270.603,320.512 270.784,321.189 270.784,309.488 241.216,309.488 
		241.216,321.195 	"/>
</g>
<g>
	<path style="fill:#FCD462;" d="M281.291,360.4l-1.243-4.64l4.16-2.405l-2.405-4.16l1.413-1.413l1.984-1.984l-3.397-3.397
		l2.405-4.16l-4.16-2.4l1.243-4.64l-4.64-1.243v-4.805h-4.805l-1.061-3.957l-0.181-0.683l-4.64,1.243l-2.4-4.16l-4.16,2.405
		L256,316.597l-3.397,3.397l-4.16-2.405l-2.405,4.16l-4.64-1.243l-0.181,0.683l-1.061,3.957h-4.805v4.805l-4.64,1.243l1.243,4.64
		l-4.16,2.4l2.4,4.16l-3.397,3.397l1.984,1.984l1.413,1.413l-2.4,4.16l4.16,2.405l-1.243,4.64l4.64,1.243v0.939v3.861h4.805
		l0.629,2.347l0.432,1.611l0.181,0.683l4.64-1.243l1.36,2.357l1.04,1.803l4.16-2.4l2.24,2.24l1.163,1.168l1.157-1.157l2.24-2.24
		l4.16,2.4l1.04-1.803l1.36-2.357l4.64,1.243l0.181-0.683l0.432-1.611l0.629-2.347h4.805v-3.861v-0.939L281.291,360.4z M256,366.747
		c-11.552,0-20.949-9.397-20.949-20.949s9.397-20.949,20.949-20.949s20.949,9.397,20.949,20.949S267.552,366.747,256,366.747z"/>
	<circle style="fill:#FCD462;" cx="256" cy="345.797" r="17.835"/>
</g>
<path style="fill:#E56353;" d="M276.949,345.797c0-11.552-9.397-20.949-20.949-20.949s-20.949,9.397-20.949,20.949
	s9.397,20.949,20.949,20.949S276.949,357.349,276.949,345.797z M238.171,345.797c0-9.835,8-17.835,17.835-17.835
	c9.835,0,17.835,8,17.835,17.835s-8,17.835-17.835,17.835C246.165,363.632,238.171,355.632,238.171,345.797z"/>
</svg>